<?xml version="1.0" encoding="utf-8"?><svg viewBox="0 0 35 66" xmlns="http://www.w3.org/2000/svg" xmlns:xlink="http://www.w3.org/1999/xlink"><style>:root>svg{display:none}:root>svg:target{display:block}</style><svg fill="none" viewBox="0 0 19 26" id="arrow-right" xmlns="http://www.w3.org/2000/svg"><path fill="#fff" d="M0 7h8v11H0z"/><path d="M19 13L7 1.742v22.516L19 13z" fill="#fff"/></svg><svg fill="none" viewBox="0 0 35 35" id="dot" xmlns="http://www.w3.org/2000/svg"><circle cx="17.5" cy="17.5" r="10.5" fill="#79C89C"/><circle opacity=".5" cx="17.5" cy="17.5" r="14.5" fill="#79C89C"/><circle opacity=".3" cx="17.5" cy="17.5" r="17.5" fill="#79C89C"/></svg><svg fill="none" viewBox="0 0 31 66" id="men" xmlns="http://www.w3.org/2000/svg"><path d="M15.5 14c3.585 0 6.5-3.14 6.5-7s-2.915-7-6.5-7C11.916 0 9 3.14 9 7s2.916 7 6.5 7z" fill="#000"/><path d="M30.962 34.093a.809.809 0 00.022-.399l-3.227-16.957A3.261 3.261 0 0024.518 14H6.481c-1.618 0-2.98 1.152-3.234 2.716L.015 33.694a.82.82 0 00.022.4 2.83 2.83 0 00-.037.453c0 1.796 1.475 3.256 3.289 3.256a3.28 3.28 0 003.231-2.686l2.037-12.609-.026 40.237c0 1.796 1.474 3.255 3.288 3.255 1.813 0 3.288-1.46 3.288-3.255V42.829h.785v19.916c0 1.796 1.475 3.255 3.29 3.255 1.813 0 3.287-1.46 3.287-3.256l-.026-40.236 2.04 12.628a3.276 3.276 0 003.23 2.667c1.812 0 3.287-1.46 3.287-3.256 0-.15-.012-.3-.038-.454z" fill="#000"/></svg><svg fill="none" viewBox="0 0 31 66" id="women" xmlns="http://www.w3.org/2000/svg"><path d="M21.5 7c0 3.62-2.726 6.5-6 6.5s-6-2.88-6-6.5 2.725-6.5 6-6.5c3.274 0 6 2.88 6 6.5zM30.484 33.757v.001c.02.065.018.13 0 .191l-.033.11.018.111c.02.134.031.258.031.377 0 1.515-1.246 2.756-2.787 2.756a2.777 2.777 0 01-2.739-2.258l-.003-.02-.006-.02-2.103-7.73-.972.233 3.505 16.828.009.043.016.04c.13.326.196.665.196 1.016 0 1.515-1.246 2.756-2.787 2.756h-.859v14.554c0 1.513-1.246 2.755-2.788 2.755-1.542 0-2.788-1.24-2.788-2.755V48.19h-1.786v14.554c0 1.514-1.247 2.755-2.788 2.755-1.542 0-2.788-1.24-2.788-2.755V48.19h-.858c-1.542 0-2.789-1.241-2.789-2.756 0-.347.066-.687.196-1.014l.016-.04.01-.044L9.112 27.51l-.972-.233-2.12 7.796-.006.02-.004.02c-.226 1.232-1.368 2.191-2.722 2.191C1.747 37.303.5 36.062.5 34.547c0-.12.01-.242.031-.375l.019-.116-.036-.113a.317.317 0 010-.185v-.001l4.91-16.934.008-.025.004-.026A2.76 2.76 0 018.174 14.5h14.652c1.36 0 2.5.954 2.736 2.272l.005.026.007.025 4.91 16.934z" fill="#000" stroke="#000"/></svg></svg>